<svg width="800" height="600" xmlns="http://www.w3.org/2000/svg">

 <g>
  <title>Layer 1</title>
  <g stroke="null">
   <g stroke="null">
    <path stroke="#000" fill="#fff" d="m45.83554,282.92761l46.40104,0l0,-10.59001c0,-14.12002 2.87151,-27.59821 8.09245,-39.92114c5.41672,-12.7722 13.31338,-24.32494 23.16789,-33.95222c9.78925,-9.62728 21.53635,-17.45747 34.52342,-22.78457c12.53024,-5.13455 26.23519,-7.95855 40.59275,-7.95855l184.62523,0l0,-0.89855l0,-65.01626c-3.00204,-1.09109 -5.87355,-2.43891 -8.61454,-3.97928c-3.85044,-2.24637 -7.37457,-4.94201 -10.50713,-8.02274c-4.82936,-4.74946 -8.74506,-10.46165 -11.42079,-16.81566c-2.5452,-6.09728 -3.98096,-12.83638 -3.98096,-19.76802c0,-6.99583 1.43576,-13.67074 3.98096,-19.76802c2.67573,-6.35401 6.59143,-12.0662 11.42079,-16.81566c4.82936,-4.74946 10.63765,-8.60037 17.09855,-11.23183c6.19986,-2.56728 13.05233,-3.9151 20.10059,-3.9151s13.90073,1.412 20.10059,3.9151c6.4609,2.63146 12.26919,6.48237 17.09855,11.23183c4.82936,4.74946 8.74506,10.46165 11.42079,16.81566c2.5452,6.09728 3.98096,12.83638 3.98096,19.76802c0,6.99583 -1.43576,13.67074 -3.98096,19.76802c-2.67573,6.35401 -6.59143,12.0662 -11.42079,16.81566l-0.26105,0.25673c-3.0673,2.95237 -6.52617,5.58382 -10.24608,7.76601c-2.74099,1.60455 -5.6125,2.95237 -8.61454,3.97928l0,65.01626l0,0.89855l184.62523,0c14.35756,0 28.06251,2.824 40.59275,7.95855c13.05233,5.3271 24.73417,13.09311 34.52342,22.78457c9.78925,9.62728 17.75117,21.18002 23.16789,33.95222c5.22093,12.32292 8.09245,25.80112 8.09245,39.92114l0,10.59001l44.7695,0c6.19986,0 12.20393,1.21946 17.68591,3.46582c5.67776,2.31055 10.76817,5.71219 15.01018,9.88401l0.26105,0.25673c4.17675,4.17182 7.50509,9.04965 9.78925,14.50511c2.28416,5.39128 3.52413,11.23183 3.52413,17.39329l0,121.43214c0,6.09728 -1.23997,12.00201 -3.52413,17.39329c-2.34942,5.51964 -5.80829,10.59001 -10.0503,14.76184l0,0c-8.35349,8.21528 -19.97007,13.34983 -32.69609,13.34983l-44.83476,0c-0.19578,13.54238 -3.0673,26.5713 -8.09245,38.44495c-5.41672,12.83638 -13.31338,24.32494 -23.16789,33.95222c-9.78925,9.62728 -21.53635,17.45747 -34.52342,22.78457c-12.53024,5.13455 -26.23519,7.95855 -40.59275,7.95855l-405.34016,0c-14.35756,0 -28.06251,-2.824 -40.59275,-7.95855c-13.05233,-5.3271 -24.73417,-13.09311 -34.52342,-22.78457c-9.78925,-9.62728 -17.75117,-21.18002 -23.16789,-33.95222c-5.02515,-11.87365 -7.89666,-24.90257 -8.09245,-38.44495l-46.40104,0c-6.19986,0 -12.20393,-1.21946 -17.68591,-3.46582c-5.67776,-2.31055 -10.76817,-5.71219 -15.01018,-9.88401l-0.26105,-0.25673c-4.17675,-4.17182 -7.50509,-9.04965 -9.78925,-14.50511c-2.28416,-5.39128 -3.52413,-11.29601 -3.52413,-17.39329l0,-121.43214c0,-6.09728 1.23997,-12.00201 3.52413,-17.39329c2.34942,-5.58382 5.80829,-10.59001 10.0503,-14.76184l0,0c4.24201,-4.17182 9.33242,-7.57346 15.01018,-9.88401c5.48198,-2.24637 11.42079,-3.46582 17.68591,-3.46582l0,0zm260.45928,195.3055c-0.91366,-0.706 -1.6968,-1.47618 -2.41468,-2.37473c-2.15363,-2.56728 -3.26308,-5.51964 -3.32834,-8.53619c-0.06526,-3.01655 0.91366,-6.0331 2.93677,-8.66456c0.71788,-0.89855 1.50102,-1.73291 2.47994,-2.50309c3.39361,-2.75982 7.89666,-4.236 12.33445,-4.30019c4.43779,-0.06418 8.87559,1.21946 12.39972,3.85091c12.13867,9.17801 24.14681,15.85293 36.02444,20.28148c11.7471,4.36437 23.36367,6.41819 34.84973,6.28983c11.55131,-0.12836 23.23315,-2.50309 35.17603,-6.93164c12.07341,-4.49273 24.21208,-11.23183 36.54653,-19.89639c3.65465,-2.56728 8.15771,-3.72255 12.5955,-3.53c4.43779,0.19255 8.87559,1.73291 12.20393,4.6211c0.8484,0.77018 1.63154,1.60455 2.34942,2.56728c1.95785,2.69564 2.87151,5.77637 2.67573,8.79292c-0.19578,3.01655 -1.43576,5.96892 -3.65465,8.47201c-0.78314,0.83436 -1.6968,1.66873 -2.74099,2.37473c-15.46701,10.9751 -30.99929,19.31875 -46.72735,25.03094c-15.79332,5.71219 -31.78243,8.72874 -47.96732,8.92128c-16.25015,0.19255 -32.30452,-2.50309 -48.29363,-8.21528c-15.85858,-5.64801 -31.6519,-14.31256 -47.18418,-26.05785l-0.26105,-0.19255l0,0zm-40.65801,-196.26823c3.9157,0 7.8314,0.38509 11.55131,1.15527c3.78518,0.77018 7.50509,1.86127 11.09448,3.33746c3.65465,1.47618 7.11352,3.27328 10.31134,5.39128c3.13256,2.05382 6.06933,4.36437 8.6798,6.93164l0.39157,0.32091c2.74099,2.69564 5.22093,5.64801 7.37457,8.8571l0.13052,0.19255c2.08837,3.08073 3.9157,6.41819 5.35146,9.94819c1.50102,3.53 2.61047,7.18837 3.39361,10.91092c0.71788,3.72255 1.17471,7.50928 1.17471,11.3602c0,3.85091 -0.39157,7.70183 -1.17471,11.3602c-0.78314,3.72255 -1.89259,7.38092 -3.39361,10.9751c-1.50102,3.59419 -3.32834,6.99583 -5.48198,10.14074c-2.2189,3.27328 -4.69884,6.22564 -7.37457,8.8571c-5.41672,5.3271 -12.00815,9.69147 -19.38271,12.64383c-3.58939,1.47618 -7.30931,2.56728 -11.15974,3.33746c-3.78518,0.706 -7.63561,1.09109 -11.55131,1.09109s-7.8314,-0.38509 -11.55131,-1.09109c-3.78518,-0.77018 -7.50509,-1.86127 -11.15974,-3.33746c-3.65465,-1.47618 -7.11352,-3.27328 -10.31134,-5.39128c-3.32834,-2.18218 -6.33038,-4.6211 -9.00611,-7.25255c-2.74099,-2.69564 -5.22093,-5.64801 -7.37457,-8.8571l-0.13052,-0.19255c-2.08837,-3.08073 -3.9157,-6.41819 -5.35146,-9.94819c-1.50102,-3.53 -2.61047,-7.18837 -3.39361,-10.91092c-0.71788,-3.72255 -1.10945,-7.50928 -1.10945,-11.3602c0,-3.85091 0.39157,-7.70183 1.10945,-11.3602c0.78314,-3.72255 1.89259,-7.38092 3.39361,-10.91092c1.50102,-3.59419 3.32834,-6.99583 5.48198,-10.14074c2.2189,-3.27328 4.69884,-6.22564 7.37457,-8.8571c2.74099,-2.69564 5.74303,-5.13455 9.00611,-7.25255l0.19578,-0.12836c3.13256,-2.05382 6.52617,-3.85091 10.11556,-5.26292c3.58939,-1.47618 7.30931,-2.56728 11.09448,-3.33746c3.85044,-0.83436 7.76614,-1.21946 11.68184,-1.21946l0,0zm12.79128,28.11167c-1.95785,-0.77018 -4.04622,-1.412 -6.19986,-1.86127c-2.08837,-0.38509 -4.30727,-0.64182 -6.59143,-0.64182c-2.28416,0 -4.50305,0.19255 -6.59143,0.64182c-2.2189,0.44927 -4.30727,1.02691 -6.19986,1.86127c-2.02311,0.83436 -3.9157,1.79709 -5.74303,3.01655c-1.76206,1.15527 -3.45887,2.56728 -5.09041,4.17182c-1.63154,1.60455 -3.00204,3.27328 -4.24201,5.00619c-1.23997,1.79709 -2.2189,3.65837 -3.0673,5.58382c-0.78314,1.92546 -1.43576,3.97928 -1.89259,6.09728c-0.39157,2.05382 -0.65262,4.236 -0.65262,6.48237s0.19578,4.42855 0.65262,6.48237c0.45683,2.18218 1.04419,4.236 1.89259,6.09728c0.8484,1.98964 1.82733,3.85091 3.0673,5.58382c1.17471,1.73291 2.61047,3.40164 4.24201,5.00619c1.63154,1.60455 3.32834,2.95237 5.09041,4.17182c1.76206,1.15527 3.71991,2.18218 5.74303,3.01655l0.19578,0.12836c1.89259,0.77018 3.85044,1.34782 6.00407,1.73291c2.08837,0.38509 4.30727,0.64182 6.59143,0.64182c2.28416,0 4.50305,-0.19255 6.59143,-0.64182c2.2189,-0.44927 4.24201,-1.02691 6.19986,-1.79709c2.02311,-0.83436 3.9157,-1.86127 5.74303,-3.01655c1.76206,-1.15527 3.45887,-2.56728 5.09041,-4.17182c1.63154,-1.60455 3.00204,-3.27328 4.24201,-5.00619c1.23997,-1.79709 2.2189,-3.65837 3.0673,-5.58382c0.78314,-1.92546 1.43576,-3.97928 1.89259,-6.09728c0.39157,-2.05382 0.65262,-4.236 0.65262,-6.48237c0,-2.24637 -0.19578,-4.42855 -0.65262,-6.48237c-0.45683,-2.18218 -1.04419,-4.236 -1.89259,-6.09728c-0.8484,-1.98964 -1.82733,-3.85091 -3.0673,-5.64801c-1.23997,-1.79709 -2.61047,-3.46582 -4.17675,-5.00619l-0.32631,-0.32091c-1.50102,-1.412 -3.0673,-2.69564 -4.7641,-3.78673c-1.82733,-1.28364 -3.78518,-2.31055 -5.80829,-3.08073l0,0zm258.56669,-28.11167c3.9157,0 7.8314,0.38509 11.55131,1.15527c3.78518,0.77018 7.50509,1.86127 11.09448,3.33746c3.65465,1.47618 7.11352,3.27328 10.31134,5.39128c3.0673,2.05382 5.93881,4.30019 8.54928,6.86746c0.13052,0.12836 0.32631,0.25673 0.45683,0.38509c2.74099,2.69564 5.22093,5.64801 7.37457,8.8571l0.13052,0.19255c2.08837,3.08073 3.9157,6.41819 5.35146,9.94819c1.50102,3.53 2.61047,7.18837 3.39361,10.91092c0.71788,3.72255 1.10945,7.50928 1.10945,11.3602c0,3.85091 -0.39157,7.70183 -1.10945,11.3602c-0.78314,3.72255 -1.89259,7.38092 -3.39361,10.9751c-1.50102,3.59419 -3.32834,6.99583 -5.48198,10.14074c-2.2189,3.27328 -4.69884,6.22564 -7.37457,8.8571c-2.74099,2.69564 -5.74303,5.13455 -9.00611,7.25255l-0.19578,0.12836c-3.19782,2.05382 -6.52617,3.85091 -10.11556,5.26292c-3.58939,1.47618 -7.30931,2.56728 -11.15974,3.33746c-3.78518,0.706 -7.63561,1.09109 -11.55131,1.09109c-3.9157,0 -7.8314,-0.38509 -11.55131,-1.09109c-3.78518,-0.77018 -7.50509,-1.86127 -11.15974,-3.33746c-3.71991,-1.54037 -7.17878,-3.33746 -10.31134,-5.39128l-0.32631,-0.25673c-3.13256,-2.118 -6.06933,-4.42855 -8.6798,-6.99583c-2.74099,-2.69564 -5.22093,-5.64801 -7.37457,-8.8571l-0.13052,-0.19255c-2.08837,-3.08073 -3.9157,-6.41819 -5.35146,-9.94819c-1.50102,-3.53 -2.61047,-7.18837 -3.39361,-10.91092c-0.71788,-3.72255 -1.17471,-7.50928 -1.17471,-11.3602c0,-3.85091 0.39157,-7.70183 1.17471,-11.3602c0.78314,-3.72255 1.89259,-7.38092 3.39361,-10.91092c1.50102,-3.59419 3.32834,-6.99583 5.48198,-10.14074c2.2189,-3.27328 4.69884,-6.22564 7.37457,-8.8571c2.67573,-2.63146 5.74303,-5.07037 9.00611,-7.25255c3.19782,-2.118 6.65669,-3.9151 10.31134,-5.45546c3.58939,-1.47618 7.30931,-2.56728 11.09448,-3.33746c3.9157,-0.77018 7.76614,-1.15527 11.68184,-1.15527l0,0zm12.85655,28.11167c-1.95785,-0.77018 -4.04622,-1.412 -6.19986,-1.86127c-2.08837,-0.38509 -4.30727,-0.64182 -6.59143,-0.64182c-2.28416,0 -4.50305,0.19255 -6.59143,0.64182c-2.2189,0.44927 -4.30727,1.02691 -6.19986,1.86127c-2.02311,0.83436 -3.9157,1.79709 -5.74303,3.01655c-1.76206,1.15527 -3.45887,2.56728 -5.09041,4.17182c-1.63154,1.60455 -3.00204,3.27328 -4.24201,5.00619c-1.23997,1.79709 -2.2189,3.65837 -3.0673,5.58382c-0.78314,1.92546 -1.43576,3.97928 -1.89259,6.09728c-0.39157,2.05382 -0.65262,4.236 -0.65262,6.48237c0,2.24637 0.19578,4.42855 0.65262,6.48237c0.45683,2.18218 1.04419,4.236 1.89259,6.09728c0.8484,1.98964 1.82733,3.85091 3.0673,5.58382c1.17471,1.73291 2.61047,3.40164 4.24201,5.00619c1.63154,1.60455 3.32834,2.95237 5.09041,4.17182c1.76206,1.15527 3.71991,2.18218 5.74303,3.01655l0.19578,0.12836c1.89259,0.77018 3.85044,1.34782 6.00407,1.73291c2.08837,0.38509 4.30727,0.64182 6.59143,0.64182c2.28416,0 4.50305,-0.19255 6.59143,-0.64182c2.2189,-0.44927 4.24201,-1.02691 6.19986,-1.79709c2.02311,-0.83436 3.9157,-1.86127 5.74303,-3.01655c1.82733,-1.21946 3.52413,-2.56728 5.09041,-4.10764l0,0c1.63154,-1.60455 3.00204,-3.27328 4.24201,-5.00619c1.23997,-1.79709 2.2189,-3.65837 3.0673,-5.58382c0.78314,-1.92546 1.43576,-3.97928 1.89259,-6.09728c0.39157,-2.05382 0.65262,-4.236 0.65262,-6.48237c0,-2.24637 -0.19578,-4.42855 -0.65262,-6.48237c-0.45683,-2.18218 -1.04419,-4.236 -1.89259,-6.09728c-0.8484,-1.98964 -1.82733,-3.85091 -3.0673,-5.64801c-1.23997,-1.79709 -2.61047,-3.46582 -4.17675,-5.00619l-0.32631,-0.32091c-1.50102,-1.412 -3.0673,-2.69564 -4.7641,-3.78673c-1.89259,-1.34782 -3.78518,-2.37473 -5.80829,-3.14491l0,0zm-431.57534,-14.31256l0,198.1295c0,10.65419 2.15363,20.79493 6.06933,30.10131c4.11148,9.62728 10.0503,18.35602 17.49012,25.67276c7.43983,7.31674 16.31541,13.22147 26.10466,17.20075c9.39768,3.85091 19.77428,5.96892 30.60772,5.96892l405.47068,0c10.83344,0 21.14478,-2.118 30.60772,-5.96892c9.78925,-4.04346 18.66483,-9.88401 26.10466,-17.20075s13.4439,-16.04547 17.49012,-25.67276c3.9157,-9.24219 6.06933,-19.44711 6.06933,-30.10131l0,-221.5559c0,-10.65419 -2.15363,-20.85912 -6.06933,-30.10131c-4.11148,-9.62728 -10.0503,-18.35602 -17.49012,-25.67276c-7.43983,-7.31674 -16.31541,-13.22147 -26.10466,-17.20075c-9.39768,-3.85091 -19.77428,-5.96892 -30.60772,-5.96892l-405.40542,0c-10.83344,0 -21.14478,2.118 -30.60772,5.96892c-9.78925,4.04346 -18.66483,9.88401 -26.10466,17.20075c-7.43983,7.31674 -13.4439,16.04547 -17.49012,25.67276c-3.9157,9.24219 -6.06933,19.44711 -6.06933,30.10131l0,23.42639l-0.06526,0zm-26.0394,12.7722l-46.40104,0c-2.74099,0 -5.35146,0.51346 -7.70088,1.47618c-2.47994,1.02691 -4.69884,2.50309 -6.59143,4.36437l-0.26105,0.19255c-1.76206,1.79709 -3.19782,3.9151 -4.17675,6.22564c-0.97892,2.31055 -1.50102,4.87782 -1.50102,7.57346l0,121.43214c0,2.69564 0.52209,5.26292 1.50102,7.57346c1.04419,2.43891 2.5452,4.6211 4.43779,6.48237c3.65465,3.59419 8.6798,5.84055 14.22704,5.84055l46.40104,0l0,-161.16073l0.06526,0zm662.99318,0l-44.7695,0l0,161.16073l44.7695,0c2.74099,0 5.35146,-0.51346 7.70088,-1.47618c2.47994,-1.02691 4.69884,-2.50309 6.59143,-4.36437c1.89259,-1.86127 3.39361,-4.04346 4.43779,-6.48237c0.97892,-2.31055 1.50102,-4.87782 1.50102,-7.57346l0,-121.36796c0,-2.69564 -0.52209,-5.26292 -1.50102,-7.57346c-1.04419,-2.43891 -2.5452,-4.6211 -4.43779,-6.48237l0,0c-1.89259,-1.86127 -4.11148,-3.33746 -6.59143,-4.36437c-2.34942,-0.89855 -4.95989,-1.47618 -7.70088,-1.47618l0,0z"/>
   </g>
  </g>
 </g>
</svg>